<?xml version="1.0" encoding="utf-8"?>
<svg version="1.1" xmlns="http://www.w3.org/2000/svg" xmlns:xlink="http://www.w3.org/1999/xlink" x="0px" y="0px"
	 viewBox="0 0 32 32" style="enable-background:new 0 0 32 32;" xml:space="preserve">
<style type="text/css">
	.st0{display:none;}
	.st1{display:inline;fill:#DF1F26;}
	.st2{display:inline;fill:#FFFFFF;}
	.st3{display:inline;fill:#3D73A8;}
	.st4{fill:#3AA53D;} /* This style is no longer used by any visible element */
	/* Changed fill and stroke from white to black */
	.st5{fill:#000000;stroke:#000000;stroke-width:0.6953;stroke-miterlimit:10;}
</style>
<g id="Layer_1" class="st0">
	<rect x="0" y="0" class="st1" width="32" height="32"/>
	<path class="st2" d="M16.47,28.38c-0.33,0-0.66,0-0.99,0c-0.52-0.07-1.05-0.12-1.57-0.22C6.88,26.83,2.45,20.32,3.89,13.45
		c1.37-6.52,7.59-10.83,14.16-9.63c5.15,0.93,8.47,4.07,9.9,9.13c0.23,0.82,0.3,1.69,0.44,2.54c0,0.33,0,0.66,0,0.99
		c-0.07,0.52-0.11,1.05-0.22,1.57c-1.09,5.17-4.14,8.54-9.27,9.93C18.11,28.18,17.28,28.25,16.47,28.38z M6.6,14.5
		c0.23,0,0.41,0.01,0.59,0c2.12-0.08,4.04-0.83,5.94-1.69c1.87-0.85,3.76-0.81,5.66-0.04c1.15,0.47,2.31,0.96,3.5,1.3
		c0.99,0.28,2.03,0.36,3.09,0.53c-0.6-4.59-4.77-8.16-9.37-8.15C11.33,6.46,7.17,9.99,6.6,14.5z M14.06,25.26
		c0-1.54,0.01-3.04,0-4.54c-0.01-1.45-1.33-2.79-2.77-2.82c-1.36-0.02-2.71-0.03-4.07-0.04c-0.17,0-0.35,0-0.53,0
		C7.26,21.43,10.65,24.81,14.06,25.26z M25.26,17.9c-0.14-0.01-0.29-0.04-0.43-0.04c-1.38,0.01-2.75,0.01-4.13,0.04
		c-1.45,0.03-2.79,1.42-2.81,2.87c-0.02,1.38-0.03,2.75-0.04,4.13c0,0.12,0.03,0.24,0.05,0.36C21.37,24.75,24.85,21.27,25.26,17.9z
		 M18.23,16.01c0.15-1.19-1.06-2.33-2.21-2.3c-1.31,0.03-2.3,0.94-2.31,2.22c-0.01,1.33,0.93,2.3,2.25,2.31
		C17.28,18.23,18.23,17.3,18.23,16.01z"/>
</g>
<g id="Layer_2" class="st0">
	<rect x="0" y="0" class="st3" width="32" height="32"/>
	<path class="st2" d="M23.36,26.42c-0.46,0-0.87-0.15-1.2-0.47c-0.24-0.23-0.46-0.47-0.7-0.69c-0.5-0.47-1.08-0.61-1.72-0.34
		c-0.63,0.27-0.96,0.77-0.98,1.46c-0.01,0.35,0.01,0.7-0.01,1.05c-0.04,0.95-0.75,1.63-1.7,1.64c-0.66,0-1.32,0-1.97,0
		c-0.97-0.01-1.7-0.72-1.72-1.69c-0.01-0.35,0.01-0.7,0-1.05c-0.02-0.68-0.37-1.15-0.99-1.41c-0.61-0.26-1.18-0.14-1.67,0.31
		c-0.24,0.22-0.46,0.47-0.7,0.69c-0.71,0.68-1.74,0.67-2.44-0.02c-0.49-0.48-0.97-0.96-1.45-1.44c-0.71-0.72-0.7-1.71,0-2.43
		c0.22-0.23,0.46-0.44,0.68-0.67c0.46-0.48,0.59-1.04,0.34-1.66c-0.25-0.62-0.72-0.98-1.4-1.01c-0.33-0.02-0.66,0-0.99-0.01
		c-1.11-0.02-1.79-0.71-1.79-1.82c0-0.62,0-1.25,0-1.87c0.01-0.89,0.64-1.58,1.52-1.66c0.37-0.03,0.75-0.02,1.12-0.02
		c0.72,0,1.24-0.32,1.53-0.98c0.27-0.62,0.12-1.23-0.41-1.77c-0.22-0.22-0.44-0.43-0.65-0.65c-0.64-0.68-0.65-1.66,0-2.33
		C6.57,7.05,7.1,6.53,7.64,6.03c0.67-0.62,1.68-0.59,2.34,0.03c0.25,0.23,0.48,0.49,0.73,0.72c0.49,0.45,1.05,0.57,1.67,0.31
		c0.62-0.26,0.97-0.73,0.99-1.42c0.01-0.33,0-0.66,0-0.99c0.02-1.06,0.74-1.75,1.79-1.76c0.61,0,1.22,0,1.84,0
		c1.02,0,1.73,0.69,1.77,1.71c0.01,0.34,0,0.68,0.01,1.02c0.01,0.7,0.37,1.18,1,1.44c0.63,0.25,1.2,0.12,1.69-0.35
		c0.23-0.22,0.45-0.45,0.67-0.67c0.69-0.67,1.73-0.67,2.42,0c0.51,0.49,1,0.98,1.5,1.49c0.68,0.69,0.67,1.68,0,2.38
		c-0.23,0.24-0.47,0.46-0.7,0.69c-0.46,0.46-0.58,1.02-0.36,1.63c0.23,0.62,0.68,0.98,1.35,1.03c0.35,0.03,0.7,0.01,1.05,0.01
		c0.99,0.02,1.62,0.62,1.65,1.6c0.02,0.71,0.02,1.43,0,2.14c-0.03,1.02-0.68,1.63-1.7,1.64c-0.33,0-0.66-0.01-0.99,0.01
		c-0.67,0.04-1.13,0.39-1.37,1c-0.24,0.6-0.12,1.16,0.33,1.63c0.24,0.25,0.51,0.49,0.75,0.74c0.64,0.67,0.64,1.66,0,2.33
		c-0.5,0.52-1.02,1.03-1.54,1.54C24.2,26.26,23.81,26.42,23.36,26.42z M10.62,15.98c-0.01,3.02,2.42,5.46,5.43,5.46
		c3,0,5.46-2.45,5.45-5.45c0-2.99-2.44-5.43-5.43-5.44C13.06,10.55,10.63,12.97,10.62,15.98z"/>
</g>
<g id="Layer_3">
	<path class="st5" d="M3.74,15.95C3.78,9.21,9.36,3.69,16.08,3.74c6.67,0.05,12.19,5.6,12.18,12.24
		c-0.01,6.77-5.6,12.32-12.34,12.28C9.23,28.22,3.7,22.63,3.74,15.95z M23.97,22.58c3.34-3.9,3.35-10.31-1.05-14.32
		C18.69,4.41,12.03,4.79,8.17,9.19c-3.81,4.34-2.95,10.38-0.12,13.35c0.89-2.29,2.46-3.94,4.69-4.95c-1.9-2.54-1.89-4.99-0.02-6.83
		c1.68-1.65,4.3-1.79,6.17-0.33c0.9,0.7,1.48,1.62,1.7,2.73c0.33,1.68-0.17,3.16-1.39,4.43C21.51,18.6,23.05,20.25,23.97,22.58z
		 M16.03,26.39c2.11-0.03,4.11-0.65,5.94-1.89c0.41-0.28,0.47-0.54,0.33-0.99c-0.87-2.81-3.44-4.72-6.37-4.71
		c-2.85,0.01-5.42,1.98-6.26,4.77c-0.12,0.4-0.03,0.64,0.32,0.89C11.79,25.71,13.77,26.34,16.03,26.39z M16.01,16.96
		c1.56-0.02,2.85-1.34,2.83-2.88c-0.02-1.52-1.33-2.82-2.83-2.82c-1.59,0.01-2.91,1.35-2.86,2.92C13.2,15.72,14.5,16.98,16.01,16.96
		z"/>
</g>
</svg>
